# xmcd
#
# Track frame offsets:
# 150
# 16976
# 31191
# 63388
# 79633
# 94425
# 110155
# 127268
# 147645
# 163982
# 187290
# 201458
#
# Disc length: 2745 seconds
#
#
# Revision: 0
# Processed by: cddbd v1.5PL3 Copyright (c) Steve Scherf et al.
# Submitted via: FreeRIP 2.53 
#
DISCID=be0ab70c
DTITLE=Green, Pat - Dancehall Dreamer
DYEAR=1900
DGENRE=
TTITLE0=Here We Go
TTITLE1=Down The River
TTITLE2=I Like Texas
TTITLE3=Dancehall Dreamer
TTITLE4=The Bottle
TTITLE5=Rain Layfayette
TTITLE6=West Texas Holiday
TTITLE7=Goin' Down In Style
TTITLE8=Family Man
TTITLE9=Soouthbound 35
TTITLE10=One For The Road
TTITLE11=Pat and Jack's Blues
EXTD=
EXTT0=
EXTT1=
EXTT2=
EXTT3=
EXTT4=
EXTT5=
EXTT6=
EXTT7=
EXTT8=
EXTT9=
EXTT10=
EXTT11=
PLAYORDER=
